<svg xmlns="http://www.w3.org/2000/svg" width="60" height="90" fill="none">
  <g clip-path="url(#a)">
    <path fill="#120F08" d="M3.18 65.56 29.074 2.165c.339-.829 1.513-.829 1.852 0L56.82 65.56a1 1 0 0 1-.047.857l-4.76 8.724a1 1 0 0 1-1.804-.105L30.927 27.2c-.336-.835-1.518-.835-1.855 0L9.79 74.992a1 1 0 0 1-1.804.107l-4.757-8.681a1 1 0 0 1-.049-.859Z"/>
    <path fill="#120F08" d="M25 60.4V89a1 1 0 0 0 1 1h8a1 1 0 0 0 1-1V60.4a1 1 0 0 0-1-1h-8a1 1 0 0 0-1 1Z"/>
    <path fill="#F9AB01" d="M3.49 54a1 1 0 0 1-.926-1.379l3.682-9A1 1 0 0 1 7.17 43h44.685a1 1 0 0 1 .91.586l4.091 9a1 1 0 0 1-.91 1.414H3.49Z"/>
  </g>
  <defs>
    <clipPath id="a">
      <path fill="#fff" d="M0 0h60v90H0z"/>
    </clipPath>
  </defs>
</svg>
