<svg xmlns="http://www.w3.org/2000/svg" width="24" height="24">
  <path d="M9.89 7.875c1.922 0 1.922 0 2.395.434.11.183.211.37.305.566.05.094.105.188.16.285.098.172.195.352.285.531.145.274.324.516.512.762l.047-.098.445-.89c.078-.152.152-.305.23-.457.07-.149.145-.297.22-.442.042-.086.085-.168.124-.254l.078-.152.067-.137c.055-.101.055-.101.101-.148h2.344v8.25h-1.922l-.047-5.156-1.359 2.062-.281.422H13.5a4.727 4.727 0 0 1-.191-.27l-.055-.085c-.063-.094-.125-.188-.184-.282l-.117-.175c-.367-.555-.73-1.114-1.094-1.672l-.046 5.156H9.89Zm-.28 0v8.25H7.687l-.047-5.156C6.633 12.46 6.633 12.46 5.637 13.96l-.414.629-.078.12c-.856 1.298-.856 1.298-.973 1.415-.14.004-.281.004-.426.004H3.207c-.32 0-.637-.004-.957-.004.078-.238.215-.43.352-.637l.082-.12a23.2 23.2 0 0 1 .261-.4l.184-.277c.441-.668.89-1.332 1.34-1.996.37-.55.742-1.105 1.11-1.664.112-.172.226-.344.343-.515.258-.383.508-.766.726-1.176.094-.18.2-.356.301-.531.047-.082.09-.164.13-.25.519-1.079 1.304-.684 2.53-.684Zm7.921 0h1.922c.035 1.547.05 3.094.05 4.64v.13c0 .52-.003 1.039-.003 1.558l.121-.004c.383-.011.762-.02 1.145-.023.195 0 .39-.008.586-.012l.566-.012c.07 0 .145 0 .215-.004.562-.02.562-.02.773.165.098.132.176.261.25.406l.149.23.14.223.137.219.066.109c.098.152.2.297.301.445.051.086.051.086.051.18h-6.469Zm0 0" style="stroke:none;fill-rule:nonzero;fill:#fff;fill-opacity:1"/>
  <path d="M0 7.875c.266-.012.535-.023.8-.027l.274-.012c.735-.035.735-.035.969.117.082.11.144.219.203.34.086.164.192.312.293.465.094.137.184.273.273.41l.094.145.094.14.191.293c.157.234.309.473.465.707a1.98 1.98 0 0 0 .328-.394l.082-.121.086-.13.086-.136.282-.43.28-.426c.06-.09.118-.18.173-.265.054-.082.105-.16.16-.239.07-.105.07-.105.125-.21.074-.122.137-.215.277-.254.121-.012.235-.008.356-.004h.132l.415.011c.093 0 .187.004.28.004.231.004.458.008.688.016-.156.29-.32.563-.508.832l-.078.117c-.054.082-.113.164-.168.246-.156.227-.308.453-.46.68l-.094.14c-.328.481-.645.97-.965 1.454a216.18 216.18 0 0 1-1.543 2.312c-.43.637-.86 1.278-1.285 1.922l-.07.102c-.04.062-.083.125-.126.187-.136.207-.136.207-.187.258-.14.004-.281.004-.426.004H.68c-.227-.004-.453-.004-.68-.004.078-.242.219-.438.36-.648l.081-.122c.059-.09.118-.175.172-.265.094-.137.184-.277.278-.414.3-.457.605-.91.914-1.364l.164-.238c.105-.148.207-.297.312-.449.047-.066.094-.133.14-.203l.067-.09c.11-.164.11-.164.125-.352a1.115 1.115 0 0 0-.144-.308l-.149-.223-.082-.12c-.09-.134-.18-.267-.265-.4-.34-.515-.684-1.027-1.028-1.542l-.257-.383c-.11-.16-.215-.32-.325-.48l-.144-.22-.067-.097C0 7.98 0 7.98 0 7.875Zm0 0" style="stroke:none;fill-rule:nonzero;fill:#fff;fill-opacity:1"/>
</svg>
